<?xml version="1.0" encoding="UTF-8" standalone="no"?>
<!-- Created with Inkscape (http://www.inkscape.org/) -->

<svg
   width="32"
   height="32"
   viewBox="0 0 32 32"
   version="1.1"
   id="svg1"
   xmlns="http://www.w3.org/2000/svg"
   xmlns:svg="http://www.w3.org/2000/svg">
  <defs
     id="defs1" />
  <g
     id="layer1">
    <path
       id="path2-6-9-7"
       style="fill:#00ff00;fill-opacity:1;stroke:none;stroke-width:0.420263;stroke-dasharray:none;stroke-opacity:1"
       d="M 15.993175,1.7315831 C 13.529157,1.7446485 11.108142,2.3784288 8.9533986,3.5732065 9.1012234,7.3243743 12.18019,10.291986 15.934223,10.301664 19.729737,10.295135 22.829486,7.2664109 22.924098,3.4719688 20.792462,2.3295085 18.411586,1.7315831 15.993175,1.7315831 Z M 1.8968054,12.350578 c -0.380761,1.317965 -0.5751731,2.682704 -0.576965,4.05461 0.013532,6.289817 4.0342748,11.87127 9.9959376,13.876256 0.07615,-0.619072 0.120948,-1.241551 0.133491,-1.865103 C 11.44178,21.717457 8.7579599,13.004665 1.8968054,12.350578 Z m 28.2188506,0.08781 c -6.564767,2.950496 -10.793566,9.471607 -10.809897,16.668933 0.01503,0.512459 0.05161,1.023043 0.1093,1.532013 6.586,-1.579497 11.235221,-7.461218 11.251357,-14.233855 -9.33e-4,-1.341445 -0.187244,-2.676264 -0.550983,-3.967268 z" />
    <path
       style="color:#000000;fill:#00ff00;stroke-width:0.459483;-inkscape-stroke:none"
       d="m 16.040985,1.472339 c -8.1802678,0 -14.8147483,6.6344712 -14.8147483,14.814748 0,8.180267 6.6344712,14.814766 14.8147483,14.814766 8.180277,0 14.814739,-6.634499 14.814739,-14.814766 0,-8.1802675 -6.634472,-14.814748 -14.814739,-14.814748 z m 0,0.2822111 c 8.027525,0 14.532051,6.5044805 14.532051,14.5320509 0,8.027525 -6.504471,14.532015 -14.532051,14.532015 -8.0275155,0 -14.5320519,-6.504433 -14.5320519,-14.532015 0,-8.0275145 6.5044711,-14.5320509 14.5320519,-14.5320509 z"
       id="path2-6-2" />
  </g>
</svg>
