<?xml version="1.0" encoding="UTF-8" standalone="no"?>
<!-- Created with Inkscape (http://www.inkscape.org/) -->

<svg
   width="32"
   height="32"
   viewBox="0 0 32 32"
   version="1.1"
   id="svg1"
   xmlns="http://www.w3.org/2000/svg"
   xmlns:svg="http://www.w3.org/2000/svg">
  <defs
     id="defs1" />
  <g
     id="layer1">
    <path
       id="rect2"
       style="fill:#00ff00;stroke:none;stroke-width:2.28775;stroke-opacity:1"
       d="M 31.349892,25.570811 V 6.4487003 H 0.41352451 V 25.570811 Z m -4.919641,-1.680006 a 3.0820839,3.0820839 0 0 1 -3.082104,-3.081901 3.0820839,3.0820839 0 0 1 0.04791,-0.514549 v -5.802808 a 3.0820839,3.0820839 0 0 1 -1.084601,0.205685 3.0820839,3.0820839 0 0 1 -3.081831,-3.082104 3.0820839,3.0820839 0 0 1 3.081831,-3.0821052 3.0820839,3.0820839 0 0 1 3.082105,3.0821052 3.0820839,3.0820839 0 0 1 -0.0093,0.131503 h 0.01553 v 6.165488 a 3.0820839,3.0820839 0 0 1 1.030447,-0.184779 3.0820839,3.0820839 0 0 1 3.081831,3.082105 3.0820839,3.0820839 0 0 1 -3.081831,3.081901 z m -9.841072,-0.169269 a 3.0820839,3.0820839 0 0 1 -3.081832,-3.082104 3.0820839,3.0820839 0 0 1 3.081832,-3.082098 3.0820839,3.0820839 0 0 1 3.082105,3.082098 3.0820839,3.0820839 0 0 1 -3.082105,3.082104 z m -7.0976179,-0.28054 h -2.599e-4 a 3.0820839,3.0820839 0 0 1 -3.0818309,-3.082105 3.0820839,3.0820839 0 0 1 0.019459,-0.271774 h -0.00211 v -5.77246 A 3.0820839,3.0820839 0 0 1 5.34843,14.518319 3.0820839,3.0820839 0 0 1 2.2663251,11.436214 3.0820839,3.0820839 0 0 1 5.34843,8.3541163 3.0820839,3.0820839 0 0 1 8.418663,11.271132 h 0.011942 v 0.165223 6.038094 A 3.0820839,3.0820839 0 0 1 9.4913995,17.277531 3.0820839,3.0820839 0 0 1 12.573504,20.359636 3.0820839,3.0820839 0 0 1 9.4916735,23.44174 Z M 17.357132,16.519735 H 15.353137 V 8.7657108 h 2.003974 z" />
  </g>
</svg>
