<?xml version="1.0" encoding="UTF-8" standalone="no"?>
<!-- Created with Inkscape (http://www.inkscape.org/) -->

<svg
   width="512"
   height="512"
   viewBox="0 0 512 512"
   version="1.1"
   id="svg1"
   inkscape:version="1.3.2 (1:1.3.2+202311252150+091e20ef0f)"
   sodipodi:docname="web_logo.svg"
   xmlns:inkscape="http://www.inkscape.org/namespaces/inkscape"
   xmlns:sodipodi="http://sodipodi.sourceforge.net/DTD/sodipodi-0.dtd"
   xmlns="http://www.w3.org/2000/svg"
   xmlns:svg="http://www.w3.org/2000/svg">
  <sodipodi:namedview
     id="namedview1"
     pagecolor="#505050"
     bordercolor="#eeeeee"
     borderopacity="1"
     inkscape:showpageshadow="0"
     inkscape:pageopacity="0"
     inkscape:pagecheckerboard="0"
     inkscape:deskcolor="#505050"
     inkscape:document-units="px"
     inkscape:zoom="0.48925781"
     inkscape:cx="240.15968"
     inkscape:cy="150.22754"
     inkscape:window-width="1366"
     inkscape:window-height="699"
     inkscape:window-x="0"
     inkscape:window-y="32"
     inkscape:window-maximized="1"
     inkscape:current-layer="layer1" />
  <defs
     id="defs1" />
  <g
     inkscape:label="Layer 1"
     inkscape:groupmode="layer"
     id="layer1">
    <path
       id="path1-3"
       style="fill:#00ff00;fill-opacity:1;stroke:none;stroke-width:3.48259"
       d="m 343.46142,10.950339 c -0.87219,2.385803 -1.62561,4.75531 -2.35186,7.113964 0.71607,-2.358654 1.47627,-4.727489 2.35186,-7.113964 z m 0,0 c -2.24326,5.011185 -4.60429,9.900549 -7.0556,14.67555 2.45368,-4.781081 4.81301,-9.66334 7.0556,-14.67555 z m -2.86772,8.852588 c -0.67196,2.328111 -1.30319,4.648055 -1.82243,6.944277 0.52942,-2.297566 1.15047,-4.615495 1.82243,-6.944277 z m -1.82243,6.944277 c -0.58034,2.507979 -1.05207,4.991177 -1.46271,7.456381 0.40724,-2.463861 0.88916,-4.948755 1.46271,-7.456381 z m -2.72858,-0.410643 c -2.50458,4.822515 -5.11031,9.516385 -7.83924,14.060965 2.72857,-4.547974 5.34854,-9.230638 7.83924,-14.060965 z m 1.17084,8.430739 c -0.98758,6.116876 -1.50004,12.092593 -1.50004,17.862314 L 305.62047,166.57064 a 71.180022,71.180022 0 0 0 -1.10297,-0.543 71.180022,71.180022 0 0 1 38.16785,63.00582 71.180022,71.180022 0 0 1 -71.18233,71.17937 71.180022,71.180022 0 0 1 -71.17938,-71.17937 71.180022,71.180022 0 0 1 71.17938,-71.18239 71.180022,71.180022 0 0 1 24.55681,4.41594 71.180022,71.180022 0 0 0 -1.00116,-0.39707 l 31.2381,-118.292508 c 0.61427,-0.984187 1.1878,-2.012492 1.79529,-3.010254 C 289.04439,105.49192 226.3183,140.1856 130.92569,93.792404 197.07304,169.93044 78.721547,202.55019 9.7039422,230.29823 118.61265,261.66868 185.42711,303.0693 127.67455,402.37607 220.50349,284.08548 242.24239,456.30486 260.03676,483.3725 259.48679,281.17008 374.45799,357.01857 402.813,363.24531 349.07772,322.37329 446.73441,249.94612 506.29258,221.84381 413.34711,225.47763 378.5874,170.66621 445.14479,105.19886 387.3345,160.42413 325.40962,108.42087 337.22067,34.76829 Z m -38.34428,128.61059 a 71.180022,71.180022 0 0 1 2.88807,1.27945 71.180022,71.180022 0 0 0 -2.88807,-1.27945 z" />
    <path
       id="path25"
       style="color:#000000;fill:#000000;fill-opacity:1;stroke-width:5.66275;-inkscape-stroke:none"
       d="m 341.13649,82.521453 -33.44537,87.959587 c 6.18206,3.73107 10.12761,7.18457 14.91449,12.59452 l 65.97486,-57.13493 c -4.44549,-0.77718 -8.85156,-2.37223 -12.90235,-4.2571 l -42.80968,37.88096 33.09999,-43.56001 c -3.02722,-2.23308 -6.01337,-4.71356 -8.65338,-7.58163 L 329.21857,145.49518 348.285,96.626255 c -2.61998,-4.445451 -5.35873,-8.901128 -7.14455,-14.10204 z"
       sodipodi:nodetypes="ccccccccccc" />
    <path
       id="path18"
       style="color:#000000;fill:#000000;fill-opacity:1;stroke:none;stroke-width:7.90601;stroke-opacity:1;-inkscape-stroke:none"
       d="m 445.1443,105.19748 c -12.6936,12.12618 -25.58815,19.07251 -37.86012,21.76579 l -82.59704,68.5725 11.42573,10.75379 83.92081,-69.23346 c 5.66654,-10.17244 13.92625,-20.85765 25.11062,-31.85862 z"
       sodipodi:nodetypes="cccccc" />
    <path
       id="path1-2"
       style="fill:#000000;fill-opacity:1;stroke:#000000;stroke-width:3.48259;stroke-opacity:1"
       d="m 28.539484,223.0335 c -6.420297,2.45028 -12.967506,4.91212 -18.8220729,7.26399 4.5350709,1.30998 8.8912989,2.66749 13.2763379,4.00904 l 185.397431,4.24727 c -0.44458,-3.15278 -1.18103,-5.38827 -1.20139,-8.5838 0.0354,-0.62446 0.5939,-2.21273 0.64821,-2.83718 z"
       sodipodi:nodetypes="ccccccc" />
    <path
       id="path3"
       style="color:#000000;fill:#000000;fill-opacity:1;stroke-width:5.66275;-inkscape-stroke:none"
       d="m 251.86723,291.78329 -1.7376,166.62085 c 3.58211,10.85391 6.89677,20.36757 9.92332,24.96984 -0.0396,-14.62772 0.58712,-27.64104 1.67651,-39.49048 l 1.8462,-144.24291 c -3.85021,-0.40724 -7.97835,-6.82718 -11.70637,-7.85889 z"
       sodipodi:nodetypes="cccccc" />
    <path
       id="path5"
       style="color:#000000;fill:#000100;fill-opacity:1;stroke-width:5.66275;-inkscape-stroke:none"
       d="m 465.54348,219.11224 -130.0439,7.46217 c 0.0453,1.01134 2.65052,1.26926 2.6607,2.2806 -10.65332,2.42992 -3.73107,6.02355 -4.09862,8.82169 l 158.03424,-8.62248 c 4.88222,-2.61998 9.67522,-5.08076 14.19841,-7.21409 -15.21756,0.59391 -28.84006,-0.40046 -40.74981,-2.72857 z"
       sodipodi:nodetypes="ccccccc" />
    <path
       id="path11"
       style="color:#000000;fill:#000000;fill-opacity:1;stroke-width:5.66275;-inkscape-stroke:none"
       d="m 130.9393,93.793789 c 1.64936,1.886917 3.08491,3.731104 4.5052,5.567121 l 83.32546,89.59767 8.32561,-7.80968 -71.68446,-77.00829 c -7.91863,-2.86772 -16.0497,-6.2516 -24.46994,-10.3499 z"
       sodipodi:nodetypes="cccccc" />
    <path
       style="color:#000000;fill:#000000;fill-opacity:1;stroke-width:5.66275;-inkscape-stroke:none"
       d="m 292.05549,285.4708 -4.35623,1.5204 33.79935,97.01851 4.35622,-1.51701 z"
       id="path31" />
    <path
       id="path20"
       style="color:#000000;fill:#010101;fill-opacity:1;stroke-width:5.66275;-inkscape-stroke:none"
       d="m 320.87738,273.95589 -8.43481,7.84906 72.12109,74.99988 c 7.54157,2.91523 13.9612,5.49717 18.24615,6.44031 -7.42247,-5.64617 -11.87033,-11.91375 -14.0138,-18.56754 z"
       sodipodi:nodetypes="cccccc" />
    <path
       id="path22"
       style="color:#000000;fill:#000000;fill-opacity:1;stroke-width:5.66275;-inkscape-stroke:none"
       d="m 217.9263,263.55267 -77.32486,112.64018 c -3.28515,8.25632 -7.55141,16.96873 -12.91423,26.18445 10.747,-13.69412 20.50233,-23.34661 29.44722,-29.93048 l 67.92577,-96.73081 z"
       sodipodi:nodetypes="cccccc" />
    <circle
       style="fill:none;stroke:none;stroke-width:4.25791"
       id="path2-1"
       cx="271.51657"
       cy="229.03107"
       r="71.180031" />
    <path
       style="fill:none;stroke:none;stroke-width:3.48259;stroke-opacity:1"
       d="M 130.93817,62.965833 C 246.23326,119.0381 313.86038,56.714203 349.58208,-34.338011 304.53355,57.260485 377.68464,138.81293 445.1438,74.369744 378.58666,139.83731 413.34779,194.65077 506.29279,191.01699 446.73494,219.11944 349.07736,291.54467 402.81257,332.41698 374.45754,326.19012 259.48792,250.34138 260.05157,452.54731 242.25731,425.47949 220.51587,253.25991 127.68696,371.55066 185.43962,272.24353 118.62569,230.84371 9.7166338,199.47375 78.734662,171.7257 197.08523,139.10383 130.93817,62.965833 Z"
       id="path1-7"
       sodipodi:nodetypes="ccccccccc" />
    <path
       style="fill:#000000;fill-opacity:1;stroke:#000000;stroke-width:11.4104;stroke-dasharray:none;stroke-opacity:1"
       d="m 414.12241,125.33972 17.86808,-8.77217 -10.85115,18.2638 z"
       id="path23" />
    <path
       style="color:#000000;fill:#000000;fill-opacity:1;stroke-width:5.66275;-inkscape-stroke:none"
       d="m 287.82744,277.14396 -9.6552,1.09278 3.64184,134.052 9.64535,-1.07921 z"
       id="path29"
       sodipodi:nodetypes="ccccc" />
    <path
       style="color:#000000;fill:#000000;fill-opacity:1;stroke-width:5.66275;-inkscape-stroke:none"
       d="m 297.36058,277.742 -8.26582,5.10045 73.84577,97.65657 8.26615,-5.10048 z"
       id="path29-1"
       sodipodi:nodetypes="ccccc" />
    <path
       sodipodi:type="star"
       style="fill:#000000;fill-opacity:1;stroke:none;stroke-width:0.814999;stroke-dasharray:none;stroke-opacity:1"
       id="path32"
       inkscape:flatsided="false"
       sodipodi:sides="5"
       sodipodi:cx="68.445267"
       sodipodi:cy="89.25264"
       sodipodi:r1="5.8718276"
       sodipodi:r2="2.9359138"
       sodipodi:arg1="1.0107135"
       sodipodi:arg2="1.639032"
       inkscape:rounded="0"
       inkscape:randomized="0"
       d="m 71.564713,94.227317 -3.319625,-2.045596 -3.567059,1.574948 0.919657,-3.789274 -2.600146,-2.90579 3.888004,-0.296304 1.96008,-3.370824 1.483262,3.606148 3.811542,0.822505 -2.971298,2.525027 z"
       inkscape:transform-center-x="0.076389634"
       inkscape:transform-center-y="0.21746237"
       transform="matrix(1.572177,1.1736629,-1.1736629,1.572177,99.956085,-12.192435)" />
    <path
       sodipodi:type="star"
       style="fill:#000000;fill-opacity:1;stroke:none;stroke-width:0.814999;stroke-dasharray:none;stroke-opacity:1"
       id="path32-9"
       inkscape:flatsided="false"
       sodipodi:sides="5"
       sodipodi:cx="68.445267"
       sodipodi:cy="89.25264"
       sodipodi:r1="5.8718276"
       sodipodi:r2="2.9359138"
       sodipodi:arg1="1.0107135"
       sodipodi:arg2="1.639032"
       inkscape:rounded="0"
       inkscape:randomized="0"
       d="m 71.564713,94.227317 -3.319625,-2.045596 -3.567059,1.574948 0.919657,-3.789274 -2.600146,-2.90579 3.888004,-0.296304 1.96008,-3.370824 1.483262,3.606148 3.811542,0.822505 -2.971298,2.525027 z"
       inkscape:transform-center-x="0.13275996"
       inkscape:transform-center-y="0.16189204"
       transform="matrix(1.4986752,1.2661662,-1.2661662,1.4986752,88.330128,-14.023219)" />
    <path
       sodipodi:type="star"
       style="fill:#000000;fill-opacity:1;stroke:none;stroke-width:0.814999;stroke-dasharray:none;stroke-opacity:1"
       id="path32-8"
       inkscape:flatsided="false"
       sodipodi:sides="5"
       sodipodi:cx="68.445267"
       sodipodi:cy="89.25264"
       sodipodi:r1="5.8718276"
       sodipodi:r2="2.9359138"
       sodipodi:arg1="1.0107135"
       sodipodi:arg2="1.639032"
       inkscape:rounded="0"
       inkscape:randomized="0"
       d="m 71.564713,94.227317 -3.319625,-2.045596 -3.567059,1.574948 0.919657,-3.789274 -2.600146,-2.90579 3.888004,-0.296304 1.96008,-3.370824 1.483262,3.606148 3.811542,0.822505 -2.971298,2.525027 z"
       inkscape:transform-center-x="-0.052398974"
       inkscape:transform-center-y="0.24078321"
       transform="matrix(1.7175855,0.94822301,-0.94822301,1.7175855,98.401427,-10.640361)" />
    <path
       sodipodi:type="star"
       style="fill:#000000;fill-opacity:1;stroke:none;stroke-width:0.814999;stroke-dasharray:none;stroke-opacity:1"
       id="path32-8-5"
       inkscape:flatsided="false"
       sodipodi:sides="5"
       sodipodi:cx="68.445267"
       sodipodi:cy="89.25264"
       sodipodi:r1="5.8718276"
       sodipodi:r2="2.9359138"
       sodipodi:arg1="1.0107135"
       sodipodi:arg2="1.639032"
       inkscape:rounded="0"
       inkscape:randomized="0"
       d="m 71.564713,94.227317 -3.319625,-2.045596 -3.567059,1.574948 0.919657,-3.789274 -2.600146,-2.90579 3.888004,-0.296304 1.96008,-3.370824 1.483262,3.606148 3.811542,0.822505 -2.971298,2.525027 z"
       inkscape:transform-center-x="0.17290505"
       inkscape:transform-center-y="-0.12167258"
       transform="matrix(1.8995582,-0.49082064,0.49082064,1.8995582,-14.211649,72.828946)" />
    <path
       sodipodi:type="star"
       style="fill:#000000;fill-opacity:1;stroke:none;stroke-width:0.814999;stroke-dasharray:none;stroke-opacity:1"
       id="path32-8-5-8"
       inkscape:flatsided="false"
       sodipodi:sides="5"
       sodipodi:cx="68.445267"
       sodipodi:cy="89.25264"
       sodipodi:r1="5.8718276"
       sodipodi:r2="2.9359138"
       sodipodi:arg1="1.0107135"
       sodipodi:arg2="1.639032"
       inkscape:rounded="0"
       inkscape:randomized="0"
       d="m 71.564713,94.227317 -3.319625,-2.045596 -3.567059,1.574948 0.919657,-3.789274 -2.600146,-2.90579 3.888004,-0.296304 1.96008,-3.370824 1.483262,3.606148 3.811542,0.822505 -2.971298,2.525027 z"
       inkscape:transform-center-x="0.091436453"
       inkscape:transform-center-y="0.11023471"
       transform="matrix(-0.50832559,1.2428647,-1.2428647,-0.50832559,311.91046,148.77662)" />
    <path
       sodipodi:type="star"
       style="fill:#000000;fill-opacity:1;stroke:none;stroke-width:0.814999;stroke-dasharray:none;stroke-opacity:1"
       id="path32-8-5-8-3"
       inkscape:flatsided="false"
       sodipodi:sides="5"
       sodipodi:cx="68.445267"
       sodipodi:cy="89.25264"
       sodipodi:r1="5.8718276"
       sodipodi:r2="2.9359138"
       sodipodi:arg1="1.0107135"
       sodipodi:arg2="1.639032"
       inkscape:rounded="0"
       inkscape:randomized="0"
       d="m 71.564713,94.227317 -3.319625,-2.045596 -3.567059,1.574948 0.919657,-3.789274 -2.600146,-2.90579 3.888004,-0.296304 1.96008,-3.370824 1.483262,3.606148 3.811542,0.822505 -2.971298,2.525027 z"
       inkscape:transform-center-x="0.091433924"
       inkscape:transform-center-y="0.11023194"
       transform="matrix(-0.50832559,1.2428647,-1.2428647,-0.50832559,289.169,145.64228)" />
    <path
       sodipodi:type="star"
       style="fill:#000000;fill-opacity:1;stroke:none;stroke-width:0.814999;stroke-dasharray:none;stroke-opacity:1"
       id="path32-8-5-8-3-5"
       inkscape:flatsided="false"
       sodipodi:sides="5"
       sodipodi:cx="68.445267"
       sodipodi:cy="89.25264"
       sodipodi:r1="5.8718276"
       sodipodi:r2="2.9359138"
       sodipodi:arg1="1.0107135"
       sodipodi:arg2="1.639032"
       inkscape:rounded="0"
       inkscape:randomized="0"
       d="m 71.564713,94.227317 -3.319625,-2.045596 -3.567059,1.574948 0.919657,-3.789274 -2.600146,-2.90579 3.888004,-0.296304 1.96008,-3.370824 1.483262,3.606148 3.811542,0.822505 -2.971298,2.525027 z"
       inkscape:transform-center-x="-0.003195679"
       inkscape:transform-center-y="0.1961558"
       transform="matrix(-0.32043528,1.3040031,-1.3040031,-0.32043528,262.19048,120.36325)" />
    <path
       sodipodi:type="star"
       style="fill:#000000;fill-opacity:1;stroke:none;stroke-width:0.814999;stroke-dasharray:none;stroke-opacity:1"
       id="path32-8-5-3"
       inkscape:flatsided="false"
       sodipodi:sides="5"
       sodipodi:cx="68.445267"
       sodipodi:cy="89.25264"
       sodipodi:r1="5.8718276"
       sodipodi:r2="2.9359138"
       sodipodi:arg1="1.0107135"
       sodipodi:arg2="1.639032"
       inkscape:rounded="0"
       inkscape:randomized="0"
       d="m 71.564713,94.227317 -3.319625,-2.045596 -3.567059,1.574948 0.919657,-3.789274 -2.600146,-2.90579 3.888004,-0.296304 1.96008,-3.370824 1.483262,3.606148 3.811542,0.822505 -2.971298,2.525027 z"
       inkscape:transform-center-x="-0.064225155"
       inkscape:transform-center-y="-0.22930362"
       transform="matrix(1.9619421,0,0,1.9619421,54.008636,34.397311)" />
    <path
       sodipodi:type="star"
       style="fill:#000000;fill-opacity:1;stroke:none;stroke-width:0.814999;stroke-dasharray:none;stroke-opacity:1"
       id="path32-3"
       inkscape:flatsided="false"
       sodipodi:sides="5"
       sodipodi:cx="68.445267"
       sodipodi:cy="89.25264"
       sodipodi:r1="5.8718276"
       sodipodi:r2="2.9359138"
       sodipodi:arg1="1.0107135"
       sodipodi:arg2="1.639032"
       inkscape:rounded="0"
       inkscape:randomized="0"
       d="m 71.564713,94.227317 -3.319625,-2.045596 -3.567059,1.574948 0.919657,-3.789274 -2.600146,-2.90579 3.888004,-0.296304 1.96008,-3.370824 1.483262,3.606148 3.811542,0.822505 -2.971298,2.525027 z"
       inkscape:transform-center-x="0.040033132"
       inkscape:transform-center-y="0.25270886"
       transform="matrix(1.616367,1.1120154,-1.1120154,1.616367,112.16498,-86.529629)" />
    <path
       sodipodi:type="star"
       style="fill:#000000;fill-opacity:1;stroke:none;stroke-width:0.814999;stroke-dasharray:none;stroke-opacity:1"
       id="path32-8-8"
       inkscape:flatsided="false"
       sodipodi:sides="5"
       sodipodi:cx="68.445267"
       sodipodi:cy="89.25264"
       sodipodi:r1="5.8718276"
       sodipodi:r2="2.9359138"
       sodipodi:arg1="1.0107135"
       sodipodi:arg2="1.639032"
       inkscape:rounded="0"
       inkscape:randomized="0"
       d="m 71.564713,94.227317 -3.319625,-2.045596 -3.567059,1.574948 0.919657,-3.789274 -2.600146,-2.90579 3.888004,-0.296304 1.96008,-3.370824 1.483262,3.606148 3.811542,0.822505 -2.971298,2.525027 z"
       inkscape:transform-center-x="-0.28430568"
       inkscape:transform-center-y="0.0070860155"
       transform="matrix(1.8992595,0.49195415,-0.49195415,1.8992595,60.924031,-52.445913)" />
    <path
       sodipodi:type="star"
       style="fill:#000000;fill-opacity:1;stroke:none;stroke-width:0.814999;stroke-dasharray:none;stroke-opacity:1"
       id="path32-8-5-6"
       inkscape:flatsided="false"
       sodipodi:sides="5"
       sodipodi:cx="68.445267"
       sodipodi:cy="89.25264"
       sodipodi:r1="5.8718276"
       sodipodi:r2="2.9359138"
       sodipodi:arg1="1.0107135"
       sodipodi:arg2="1.639032"
       inkscape:rounded="0"
       inkscape:randomized="0"
       d="m 71.564713,94.227317 -3.319625,-2.045596 -3.567059,1.574948 0.919657,-3.789274 -2.600146,-2.90579 3.888004,-0.296304 1.96008,-3.370824 1.483262,3.606148 3.811542,0.822505 -2.971298,2.525027 z"
       inkscape:transform-center-x="0.040033195"
       inkscape:transform-center-y="0.25271221"
       transform="matrix(1.616367,1.1120154,-1.1120154,1.616367,157.45973,-57.723825)" />
    <path
       sodipodi:type="star"
       style="fill:#000000;fill-opacity:1;stroke:none;stroke-width:0.814999;stroke-dasharray:none;stroke-opacity:1"
       id="path32-8-5-3-0"
       inkscape:flatsided="false"
       sodipodi:sides="5"
       sodipodi:cx="68.445267"
       sodipodi:cy="89.25264"
       sodipodi:r1="5.8718276"
       sodipodi:r2="2.9359138"
       sodipodi:arg1="1.0107135"
       sodipodi:arg2="1.639032"
       inkscape:rounded="0"
       inkscape:randomized="0"
       d="m 71.564713,94.227317 -3.319625,-2.045596 -3.567059,1.574948 0.919657,-3.789274 -2.600146,-2.90579 3.888004,-0.296304 1.96008,-3.370824 1.483262,3.606148 3.811542,0.822505 -2.971298,2.525027 z"
       inkscape:transform-center-x="0.040023075"
       inkscape:transform-center-y="0.25271129"
       transform="matrix(1.616367,1.1120154,-1.1120154,1.616367,177.3203,-38.911509)" />
    <path
       style="fill:none;fill-opacity:1;stroke:#000000;stroke-width:3.48259;stroke-dasharray:none;stroke-opacity:1"
       d="m 325.85508,285.50584 c 18.43423,-0.19762 41.07926,-40.16927 27.019,-54.31381"
       id="path33"
       sodipodi:nodetypes="cc" />
    <path
       style="fill:none;fill-opacity:1;stroke:#000000;stroke-width:7.44648;stroke-dasharray:none;stroke-opacity:1"
       d="m 340.59639,302.21309 c 25.4203,-3.59218 60.06235,-56.29153 42.93185,-75.60608"
       id="path34"
       sodipodi:nodetypes="cc" />
    <path
       style="fill:none;fill-opacity:1;stroke:#000000;stroke-width:9.14537;stroke-dasharray:none;stroke-opacity:1"
       d="m 362.60501,324.00508 c 60.24198,-31.59263 61.96866,-71.85125 52.1982,-95.27504"
       id="path35"
       sodipodi:nodetypes="cc" />
    <path
       style="fill:none;fill-opacity:1;stroke:#000000;stroke-width:9.14537;stroke-dasharray:none;stroke-opacity:1"
       d="M 59.257914,227.69056 C 113.43782,237.71198 185.87801,278.5581 161.79486,357.67795"
       id="path36"
       sodipodi:nodetypes="cc" />
    <path
       style="fill:none;fill-opacity:1;stroke:#000000;stroke-width:6.88025;stroke-dasharray:none;stroke-opacity:1"
       d="m 140.73337,230.22258 c 25.20907,6.31135 57.78105,56.31937 48.75683,83.90299"
       id="path37" />
    <path
       style="fill:none;fill-opacity:1;stroke:#000000;stroke-width:4.04885;stroke-dasharray:none;stroke-opacity:1"
       d="m 180.59561,234.78671 c 14.79232,8.65303 31.88524,43.58681 27.08956,59.11573"
       id="path38"
       sodipodi:nodetypes="cc" />
    <path
       style="fill:none;fill-opacity:1;stroke:#000000;stroke-width:9.71162;stroke-dasharray:none;stroke-opacity:1"
       d="m 170.35848,348.42401 82.45716,31.8588"
       id="path39" />
    <path
       style="fill:none;fill-opacity:1;stroke:#000000;stroke-width:6.88025;stroke-dasharray:none;stroke-opacity:1"
       d="m 194.93141,316.27098 60.57837,24.57684"
       id="path40" />
    <path
       style="fill:none;fill-opacity:1;stroke:#000000;stroke-width:5.18137;stroke-dasharray:none;stroke-opacity:1"
       d="m 209.0531,292.73913 48.90467,20.8498"
       id="path41"
       sodipodi:nodetypes="cc" />
    <circle
       id="path42"
       style="fill:#000000;stroke:#ffffff;stroke-width:1.49827"
       cx="388.45432"
       cy="155.01498"
       r="0.27335614" />
    <circle
       id="path43"
       style="fill:#000000;stroke:#ffffff;stroke-width:1.49827"
       cx="392.02554"
       cy="152.25121"
       r="0.27335614" />
    <path
       style="fill:none;fill-opacity:1;stroke:#000000;stroke-width:11.4104;stroke-dasharray:none;stroke-opacity:1"
       d="m 397.88192,144.97374 17.36478,80.40703"
       id="path44"
       sodipodi:nodetypes="cc" />
    <path
       style="fill:none;fill-opacity:1;stroke:#010101;stroke-width:11.4104;stroke-dasharray:none;stroke-opacity:1"
       d="M 385.11312,230.5009 373.00179,172.21185"
       id="path45"
       sodipodi:nodetypes="cc" />
    <path
       style="fill:none;fill-opacity:1;stroke:#000000;stroke-width:11.4104;stroke-dasharray:none;stroke-opacity:1"
       d="m 357.32138,229.35442 -8.26604,-39.87657"
       id="path46"
       sodipodi:nodetypes="cc" />
    <path
       style="fill:none;fill-opacity:1;stroke:#000000;stroke-width:3.48259;stroke-dasharray:none;stroke-opacity:1"
       d="M 256.7502,190.26581 173.94412,77.918295"
       id="path47"
       sodipodi:nodetypes="cc" />
    <path
       style="fill:none;fill-opacity:1;stroke:#000000;stroke-width:3.48259;stroke-dasharray:none;stroke-opacity:1"
       d="M 272.16396,197.01689 288.33198,48.284876"
       id="path48"
       sodipodi:nodetypes="cc" />
    <path
       style="fill:none;fill-opacity:1;stroke:#000000;stroke-width:3.48259;stroke-dasharray:none;stroke-opacity:1"
       d="M 264.26176,205.3391 142.68471,74.088631"
       id="path50"
       sodipodi:nodetypes="cc" />
    <path
       style="fill:none;fill-opacity:1;stroke:#000000;stroke-width:3.48259;stroke-dasharray:none;stroke-opacity:1"
       d="M 275.82104,202.23552 310.17828,40.31597"
       id="path51"
       sodipodi:nodetypes="cc" />
    <path
       style="fill:none;fill-opacity:1;stroke:#000000;stroke-width:3.48259;stroke-dasharray:none;stroke-opacity:1"
       d="M 257.15565,184.82022 236.89038,134.74757"
       id="path52"
       sodipodi:nodetypes="cc" />
    <path
       style="fill:none;fill-opacity:1;stroke:#000000;stroke-width:3.48259;stroke-dasharray:none;stroke-opacity:1"
       d="m 267.95154,169.29503 -3.31435,-39.39128"
       id="path53"
       sodipodi:nodetypes="cc" />
    <path
       style="fill:#000000;fill-opacity:1;stroke:#000000;stroke-width:3.48259;stroke-dasharray:none;stroke-opacity:1"
       d="M 236.28163,135.63302 264.788,130.22509"
       id="path54"
       sodipodi:nodetypes="cc" />
    <path
       style="fill:#000000;fill-opacity:1;stroke:none;stroke-width:3.48259;stroke-dasharray:none;stroke-opacity:1"
       d="m 250.672,166.13079 -13.53699,-31.41284 27.5725,-5.07061 2.34508,32.05326 z"
       id="path55"
       sodipodi:insensitive="true" />
  </g>
</svg>
